<svg width="24" height="24" viewBox="0 0 24 24" fill="none" xmlns="http://www.w3.org/2000/svg">
<g clip-path="url(#clip0_5050_17405)">
<g clip-path="url(#clip1_5050_17405)">
<path d="M23.1187 19.9998L13.7717 2.1498C13.6023 1.82654 13.3477 1.55579 13.0354 1.36689C12.7231 1.17799 12.3651 1.07813 12.0002 1.07812C11.6352 1.07813 11.2772 1.17799 10.965 1.36689C10.6527 1.55579 10.3981 1.82654 10.2287 2.1498L0.880673 19.9998C0.720994 20.3046 0.642677 20.6455 0.653296 20.9895C0.663915 21.3335 0.76311 21.6689 0.941289 21.9633C1.11947 22.2577 1.3706 22.5012 1.67041 22.6702C1.97021 22.8391 2.30854 22.9279 2.65267 22.9278H21.3467C21.6908 22.9279 22.0291 22.8391 22.3289 22.6702C22.6287 22.5012 22.8799 22.2577 23.0581 21.9633C23.2362 21.6689 23.3354 21.3335 23.3461 20.9895C23.3567 20.6455 23.2784 20.3046 23.1187 19.9998ZM10.9997 8.4228C10.9997 8.15758 11.105 7.90323 11.2926 7.71569C11.4801 7.52816 11.7345 7.4228 11.9997 7.4228C12.2649 7.4228 12.5192 7.52816 12.7068 7.71569C12.8943 7.90323 12.9997 8.15758 12.9997 8.4228V14.4228C12.9997 14.688 12.8943 14.9424 12.7068 15.1299C12.5192 15.3174 12.2649 15.4228 11.9997 15.4228C11.7345 15.4228 11.4801 15.3174 11.2926 15.1299C11.105 14.9424 10.9997 14.688 10.9997 14.4228V8.4228ZM12.0497 19.9328H12.0217C11.6273 19.9315 11.2487 19.7778 10.9651 19.5039C10.6814 19.2299 10.5146 18.8569 10.4997 18.4628C10.4925 18.2668 10.5244 18.0713 10.5936 17.8878C10.6628 17.7043 10.7678 17.5364 10.9027 17.394C11.0375 17.2515 11.1993 17.1374 11.3787 17.0582C11.5582 16.979 11.7516 16.9364 11.9477 16.9328H11.9757C12.37 16.9333 12.7488 17.0862 13.0328 17.3597C13.3169 17.6331 13.4842 18.0058 13.4997 18.3998C13.5074 18.5962 13.4758 18.7922 13.4068 18.9763C13.3377 19.1604 13.2325 19.3287 13.0974 19.4716C12.9623 19.6144 12.8 19.7288 12.6201 19.808C12.4402 19.8872 12.2462 19.9296 12.0497 19.9328Z" fill="#C27800"/>
</g>
</g>
<defs>
<clipPath id="clip0_5050_17405">
<rect width="24" height="24" fill="white"/>
</clipPath>
<clipPath id="clip1_5050_17405">
<rect width="24" height="24" fill="white"/>
</clipPath>
</defs>
</svg>
