<svg width="40" height="40" viewBox="0 0 40 40" fill="none" xmlns="http://www.w3.org/2000/svg">
<path d="M24.6875 28.2031V35.2344C24.6875 35.856 24.4406 36.4521 24.001 36.8917C23.5615 37.3312 22.9654 37.5781 22.3438 37.5781H17.6562C17.0346 37.5781 16.4385 37.3312 15.999 36.8917C15.5594 36.4521 15.3125 35.856 15.3125 35.2344V28.2031" stroke="#00594F" stroke-width="2.25" stroke-linecap="round" stroke-linejoin="round"/>
<path d="M15.3125 32.8906H24.6875" stroke="#00594F" stroke-width="2.25" stroke-linecap="round" stroke-linejoin="round"/>
<path d="M20 2.42188V4.76562" stroke="#00594F" stroke-width="2.25" stroke-linecap="round" stroke-linejoin="round"/>
<path d="M3.59375 18.8281H5.9375" stroke="#00594F" stroke-width="2.25" stroke-linecap="round" stroke-linejoin="round"/>
<path d="M7.10938 7.10938L8.82812 8.76562" stroke="#00594F" stroke-width="2.25" stroke-linecap="round" stroke-linejoin="round"/>
<path d="M36.4062 18.8281H34.0625" stroke="#00594F" stroke-width="2.25" stroke-linecap="round" stroke-linejoin="round"/>
<path d="M32.8906 7.10938L31.1719 8.76562" stroke="#00594F" stroke-width="2.25" stroke-linecap="round" stroke-linejoin="round"/>
<path d="M15.3125 18.0469C15.9341 18.0469 16.5302 18.2938 16.9698 18.7333C17.4093 19.1729 17.6562 19.769 17.6562 20.3906V28.2031" stroke="#00594F" stroke-width="2.25" stroke-linecap="round" stroke-linejoin="round"/>
<path d="M22.3438 28.2031V20.3906C22.3438 19.769 22.5907 19.1729 23.0302 18.7333C23.4698 18.2938 24.0659 18.0469 24.6875 18.0469" stroke="#00594F" stroke-width="2.25" stroke-linecap="round" stroke-linejoin="round"/>
<path d="M15.1874 28.2031H24.8124C26.5549 27.34 28.0178 26.0019 29.0324 24.3431C30.0471 22.6843 30.572 20.7725 30.5468 18.8281C30.4986 16.046 29.3719 13.3912 27.4044 11.4237C25.4368 9.45609 22.782 8.32944 19.9999 8.28125C17.2177 8.32944 14.563 9.45609 12.5954 11.4237C10.6279 13.3912 9.50121 16.046 9.45302 18.8281C9.42776 20.7725 9.95272 22.6843 10.9674 24.3431C11.982 26.0019 13.4449 27.34 15.1874 28.2031Z" stroke="#00594F" stroke-width="2.25" stroke-linecap="round" stroke-linejoin="round"/>
</svg>
