<svg width="32" height="32" viewBox="0 0 32 32" fill="none" xmlns="http://www.w3.org/2000/svg">
<path d="M1.9375 20.6875C1.9375 23.1739 2.92522 25.5585 4.68337 27.3166C6.44153 29.0748 8.8261 30.0625 11.3125 30.0625C13.7989 30.0625 16.1835 29.0748 17.9416 27.3166C19.6998 25.5585 20.6875 23.1739 20.6875 20.6875C20.6875 18.2011 19.6998 15.8165 17.9416 14.0584C16.1835 12.3002 13.7989 11.3125 11.3125 11.3125C8.8261 11.3125 6.44153 12.3002 4.68337 14.0584C2.92522 15.8165 1.9375 18.2011 1.9375 20.6875Z" stroke="#846926" stroke-width="2" stroke-linecap="round" stroke-linejoin="round"/>
<path d="M5.6875 9.4375V3.8125C5.6875 3.31522 5.88504 2.83831 6.23667 2.48667C6.58831 2.13504 7.06522 1.9375 7.5625 1.9375H20.8487C21.3457 1.93761 21.8223 2.13498 22.1737 2.48625L29.5138 9.82625C29.865 10.1777 30.0624 10.6543 30.0625 11.1512V28.1875C30.0625 28.6848 29.865 29.1617 29.5133 29.5133C29.1617 29.865 28.6848 30.0625 28.1875 30.0625H22.5625" stroke="#846926" stroke-width="2" stroke-linecap="round" stroke-linejoin="round"/>
<path d="M30.0625 11.3125H22.5625C22.0652 11.3125 21.5883 11.115 21.2367 10.7633C20.885 10.4117 20.6875 9.93478 20.6875 9.4375V1.9375" stroke="#846926" stroke-width="2" stroke-linecap="round" stroke-linejoin="round"/>
<path d="M13.1876 16.9375H10.6463C10.2568 16.9378 9.87961 17.0735 9.57931 17.3215C9.27901 17.5695 9.07436 17.9143 9.00045 18.2967C8.92655 18.6791 8.988 19.0752 9.17426 19.4173C9.36052 19.7593 9.65999 20.0259 10.0213 20.1712L12.6013 21.2038C12.9626 21.3491 13.2621 21.6157 13.4483 21.9577C13.6346 22.2998 13.6961 22.6959 13.6221 23.0783C13.5482 23.4607 13.3436 23.8055 13.0433 24.0535C12.743 24.3015 12.3658 24.4372 11.9763 24.4375H9.43755" stroke="#846926" stroke-width="2" stroke-linecap="round" stroke-linejoin="round"/>
<path d="M11.3125 16.9375V16" stroke="#846926" stroke-width="2" stroke-linecap="round" stroke-linejoin="round"/>
<path d="M11.3125 25.375V24.4375" stroke="#846926" stroke-width="2" stroke-linecap="round" stroke-linejoin="round"/>
<path d="M16.1951 25.1012L18.1713 27.0774" stroke="#846926" stroke-width="2" stroke-linecap="round" stroke-linejoin="round"/>
<path d="M4.92261 13.8287L6.68386 15.59" stroke="#846926" stroke-width="2" stroke-linecap="round" stroke-linejoin="round"/>
</svg>
