<svg width="32" height="32" viewBox="0 0 32 32" fill="none" xmlns="http://www.w3.org/2000/svg">
<g clip-path="url(#clip0_5049_13199)">
<path d="M25.0007 19H22.29C21.8746 19.0003 21.4722 19.1451 21.1519 19.4096C20.8316 19.6742 20.6133 20.0419 20.5345 20.4498C20.4556 20.8577 20.5212 21.2803 20.7199 21.6451C20.9185 22.0099 21.238 22.2943 21.6234 22.4493L24.3754 23.5507C24.7608 23.7057 25.0802 23.9901 25.2789 24.3549C25.4776 24.7197 25.5431 25.1423 25.4643 25.5502C25.3854 25.9581 25.1671 26.3258 24.8468 26.5904C24.5265 26.8549 24.1241 26.9997 23.7087 27H21.0007" stroke="#846926" stroke-width="2" stroke-linecap="round" stroke-linejoin="round"/>
<path d="M23 28V27" stroke="#846926" stroke-width="2" stroke-linecap="round" stroke-linejoin="round"/>
<path d="M23 19V18" stroke="#846926" stroke-width="2" stroke-linecap="round" stroke-linejoin="round"/>
<path d="M23 31C25.1217 31 27.1566 30.1571 28.6569 28.6569C30.1571 27.1566 31 25.1217 31 23C31 20.8783 30.1571 18.8434 28.6569 17.3431C27.1566 15.8429 25.1217 15 23 15C20.8783 15 18.8434 15.8429 17.3431 17.3431C15.8429 18.8434 15 20.8783 15 23C15 25.1217 15.8429 27.1566 17.3431 28.6569C18.8434 30.1571 20.8783 31 23 31Z" stroke="#846926" stroke-width="2" stroke-linecap="round" stroke-linejoin="round"/>
<path d="M7 14.0146H14" stroke="#846926" stroke-width="2" stroke-linecap="round" stroke-linejoin="round"/>
<path d="M7 19.0146H11" stroke="#846926" stroke-width="2" stroke-linecap="round" stroke-linejoin="round"/>
<path d="M7 24.0146H11" stroke="#846926" stroke-width="2" stroke-linecap="round" stroke-linejoin="round"/>
<path d="M13 31H3C2.46957 31 1.96086 30.7893 1.58579 30.4142C1.21071 30.0391 1 29.5304 1 29V8C1 7.46957 1.21071 6.96086 1.58579 6.58579C1.96086 6.21071 2.46957 6 3 6H8C8 4.67392 8.52678 3.40215 9.46447 2.46447C10.4021 1.52678 11.6739 1 13 1C14.3261 1 15.5979 1.52678 16.5355 2.46447C17.4732 3.40215 18 4.67392 18 6H23C23.5304 6 24.0391 6.21071 24.4142 6.58579C24.7893 6.96086 25 7.46957 25 8V11" stroke="#846926" stroke-width="2" stroke-linecap="round" stroke-linejoin="round"/>
<path d="M13 6.01465C12.8674 6.01465 12.7402 5.96197 12.6464 5.8682C12.5527 5.77443 12.5 5.64726 12.5 5.51465C12.5 5.38204 12.5527 5.25486 12.6464 5.1611C12.7402 5.06733 12.8674 5.01465 13 5.01465" stroke="#846926" stroke-width="2"/>
<path d="M13 6.01465C13.1326 6.01465 13.2598 5.96197 13.3536 5.8682C13.4473 5.77443 13.5 5.64726 13.5 5.51465C13.5 5.38204 13.4473 5.25486 13.3536 5.1611C13.2598 5.06733 13.1326 5.01465 13 5.01465" stroke="#846926" stroke-width="2"/>
</g>
<defs>
<clipPath id="clip0_5049_13199">
<rect width="32" height="32" fill="white"/>
</clipPath>
</defs>
</svg>
