<svg width="32" height="32" viewBox="0 0 32 32" fill="none" xmlns="http://www.w3.org/2000/svg">
<g clip-path="url(#clip0_4930_8417)">
<path d="M15 23C15 25.1217 15.8429 27.1566 17.3431 28.6569C18.8434 30.1571 20.8783 31 23 31C25.1217 31 27.1566 30.1571 28.6569 28.6569C30.1571 27.1566 31 25.1217 31 23C31 20.8783 30.1571 18.8434 28.6569 17.3431C27.1566 15.8429 25.1217 15 23 15C20.8783 15 18.8434 15.8429 17.3431 17.3431C15.8429 18.8434 15 20.8783 15 23Z" stroke="#846926" stroke-width="2" stroke-linecap="round" stroke-linejoin="round"/>
<path d="M23 27V19" stroke="#846926" stroke-width="2" stroke-linecap="round" stroke-linejoin="round"/>
<path d="M23 19L20 22" stroke="#846926" stroke-width="2" stroke-linecap="round" stroke-linejoin="round"/>
<path d="M23 19L26 22" stroke="#846926" stroke-width="2" stroke-linecap="round" stroke-linejoin="round"/>
<path d="M5 9H19" stroke="#846926" stroke-width="2" stroke-linecap="round" stroke-linejoin="round"/>
<path d="M5 15H13" stroke="#846926" stroke-width="2" stroke-linecap="round" stroke-linejoin="round"/>
<path d="M5 21H10" stroke="#846926" stroke-width="2" stroke-linecap="round" stroke-linejoin="round"/>
<path d="M10 27H3C2.46957 27 1.96086 26.7893 1.58579 26.4142C1.21071 26.0391 1 25.5304 1 25V3C1 2.46957 1.21071 1.96086 1.58579 1.58579C1.96086 1.21071 2.46957 1 3 1H17.172C17.7021 1.00011 18.2104 1.21064 18.5853 1.58533L22.4147 5.41467C22.7894 5.7896 22.9999 6.29794 23 6.828V10" stroke="#846926" stroke-width="2" stroke-linecap="round" stroke-linejoin="round"/>
</g>
<defs>
<clipPath id="clip0_4930_8417">
<rect width="32" height="32" fill="white"/>
</clipPath>
</defs>
</svg>
