<svg width="32" height="32" viewBox="0 0 32 32" fill="none" xmlns="http://www.w3.org/2000/svg">
<path d="M11.3125 16C11.3125 17.2432 11.8064 18.4355 12.6854 19.3146C13.5645 20.1936 14.7568 20.6875 16 20.6875C17.2432 20.6875 18.4355 20.1936 19.3146 19.3146C20.1936 18.4355 20.6875 17.2432 20.6875 16C20.6875 14.7568 20.1936 13.5645 19.3146 12.6854C18.4355 11.8064 17.2432 11.3125 16 11.3125C14.7568 11.3125 13.5645 11.8064 12.6854 12.6854C11.8064 13.5645 11.3125 14.7568 11.3125 16Z" stroke="#846926" stroke-width="2" stroke-linecap="round" stroke-linejoin="round"/>
<path d="M22.3986 26.3763L16.6611 20.6388" stroke="#846926" stroke-width="2" stroke-linecap="round" stroke-linejoin="round"/>
<path d="M20.6387 16.6625L26.3762 22.3987" stroke="#846926" stroke-width="2" stroke-linecap="round" stroke-linejoin="round"/>
<path d="M5.62378 22.3988L11.3613 16.6613" stroke="#846926" stroke-width="2" stroke-linecap="round" stroke-linejoin="round"/>
<path d="M15.3388 20.64L9.60132 26.3763" stroke="#846926" stroke-width="2" stroke-linecap="round" stroke-linejoin="round"/>
<path d="M9.60132 5.625L15.3388 11.3612" stroke="#846926" stroke-width="2" stroke-linecap="round" stroke-linejoin="round"/>
<path d="M11.3613 15.3387L5.62378 9.6012" stroke="#846926" stroke-width="2" stroke-linecap="round" stroke-linejoin="round"/>
<path d="M26.3762 9.6012L20.6387 15.3387" stroke="#846926" stroke-width="2" stroke-linecap="round" stroke-linejoin="round"/>
<path d="M16.6611 11.3612L22.3986 5.625" stroke="#846926" stroke-width="2" stroke-linecap="round" stroke-linejoin="round"/>
<path d="M3.8125 16C3.8125 19.2323 5.09654 22.3323 7.38214 24.6179C9.66774 26.9035 12.7677 28.1875 16 28.1875C19.2323 28.1875 22.3323 26.9035 24.6179 24.6179C26.9035 22.3323 28.1875 19.2323 28.1875 16C28.1875 12.7677 26.9035 9.66774 24.6179 7.38214C22.3323 5.09654 19.2323 3.8125 16 3.8125C12.7677 3.8125 9.66774 5.09654 7.38214 7.38214C5.09654 9.66774 3.8125 12.7677 3.8125 16Z" stroke="#846926" stroke-width="2" stroke-linecap="round" stroke-linejoin="round"/>
</svg>
