<svg width="32" height="32" viewBox="0 0 32 32" fill="none" xmlns="http://www.w3.org/2000/svg">
<g clip-path="url(#clip0_4961_20616)">
<path d="M13.9993 24.667H19.3327C19.6868 24.667 20.0254 24.5264 20.2754 24.2764C20.5254 24.0264 20.666 23.6872 20.666 23.3337C20.666 23.141 20.6243 22.9521 20.5449 22.7796C20.4798 22.6364 20.3887 22.5042 20.2754 22.391C20.0254 22.141 19.6868 22.0003 19.3327 22.0003H18.3327C18.2546 22.0003 18.1803 21.973 18.1204 21.9242L18.097 21.9027C18.0345 21.8402 17.9993 21.7555 17.9993 21.667V15.3337C17.9993 14.6266 17.7181 13.9482 17.2181 13.4482C16.7181 12.9482 16.0397 12.667 15.3327 12.667H13.9993C13.6452 12.667 13.3066 12.8076 13.0566 13.0576C12.8066 13.3076 12.666 13.6468 12.666 14.0003C12.666 14.167 12.6973 14.3311 12.7572 14.4834C12.8236 14.654 12.9251 14.8109 13.0566 14.943C13.2025 15.0882 13.377 15.1963 13.5671 15.2614C13.7051 15.3089 13.8509 15.3337 13.9993 15.3337H14.9993C15.0879 15.3337 15.1725 15.3688 15.235 15.4313C15.2975 15.4938 15.3327 15.5785 15.3327 15.667V21.667C15.3327 21.7171 15.3223 21.766 15.3014 21.8102C15.2845 21.8441 15.2624 21.8753 15.235 21.9027C15.1725 21.9652 15.0879 22.0003 14.9993 22.0003H13.9993C13.6452 22.0003 13.3066 22.141 13.0566 22.391C12.8066 22.641 12.666 22.9801 12.666 23.3337C12.666 23.6872 12.8066 24.0264 13.0566 24.2764C13.3066 24.5264 13.6452 24.667 13.9993 24.667Z" fill="#00594F"/>
<circle cx="16.334" cy="8.66699" r="2" fill="#00594F"/>
<path d="M16 32C7.17733 32 0 24.8227 0 16C0 7.17733 7.17733 0 16 0C24.8227 0 32 7.17733 32 16C32 24.8227 24.8227 32 16 32ZM16 2C8.28 2 2 8.28 2 16C2 23.72 8.28 30 16 30C23.72 30 30 23.72 30 16C30 8.28 23.72 2 16 2Z" fill="#00594F"/>
</g>
<defs>
<clipPath id="clip0_4961_20616">
<rect width="32" height="32" fill="white"/>
</clipPath>
</defs>
</svg>
