<svg width="32" height="32" viewBox="0 0 32 32" fill="none" xmlns="http://www.w3.org/2000/svg">
<g clip-path="url(#clip0_4930_8434)">
<path d="M23 23.9985C23.5304 23.9985 24.0391 23.7878 24.4142 23.4127C24.7893 23.0377 25 22.529 25 21.9985C25 21.4681 24.7893 20.9594 24.4142 20.5843C24.0391 20.2092 23.5304 19.9985 23 19.9985C22.4696 19.9985 21.9609 20.2092 21.5858 20.5843C21.2107 20.9594 21 21.4681 21 21.9985C21 22.529 21.2107 23.0377 21.5858 23.4127C21.9609 23.7878 22.4696 23.9985 23 23.9985Z" stroke="#846926" stroke-width="2" stroke-linecap="round" stroke-linejoin="round"/>
<path d="M24.6986 14.2611L25.2879 16.1984C25.3854 16.5198 25.6013 16.7921 25.8919 16.9604C26.1824 17.1287 26.526 17.1804 26.8533 17.1051L28.8159 16.6518C29.1879 16.5679 29.577 16.6054 29.9262 16.7587C30.2753 16.912 30.5662 17.1731 30.7563 17.5037C30.9463 17.8343 31.0255 18.217 30.9822 18.5959C30.939 18.9748 30.7756 19.3298 30.5159 19.6091L29.1413 21.0891C28.9115 21.3359 28.7837 21.6606 28.7837 21.9978C28.7837 22.335 28.9115 22.6597 29.1413 22.9064L30.5159 24.3838C30.7756 24.663 30.939 25.0181 30.9822 25.397C31.0255 25.7759 30.9463 26.1586 30.7563 26.4892C30.5662 26.8198 30.2753 27.0809 29.9262 27.2342C29.577 27.3875 29.1879 27.425 28.8159 27.3411L26.8533 26.8904C26.526 26.8152 26.1824 26.8669 25.8919 27.0352C25.6013 27.2035 25.3854 27.4758 25.2879 27.7971L24.6986 29.7358C24.5891 30.1012 24.3647 30.4215 24.0586 30.6492C23.7526 30.877 23.3814 31 22.9999 31C22.6185 31 22.2472 30.877 21.9412 30.6492C21.6352 30.4215 21.4108 30.1012 21.3013 29.7358L20.7119 27.7984C20.6147 27.4769 20.3989 27.2043 20.1083 27.0357C19.8178 26.8671 19.474 26.8152 19.1466 26.8904L17.1839 27.3438C16.8114 27.4284 16.4216 27.3914 16.0717 27.2381C15.7218 27.0847 15.4303 26.8232 15.2401 26.492C15.0498 26.1607 14.9709 25.7772 15.0148 25.3977C15.0586 25.0183 15.2231 24.6629 15.4839 24.3838L16.8586 22.9024C17.088 22.6557 17.2155 22.3313 17.2155 21.9944C17.2155 21.6576 17.088 21.3331 16.8586 21.0864L15.4839 19.6051C15.2264 19.3254 15.0648 18.9708 15.0227 18.5929C14.9806 18.215 15.0602 17.8336 15.2498 17.504C15.4394 17.1744 15.7292 16.914 16.0771 16.7605C16.4249 16.6069 16.8127 16.5684 17.1839 16.6504L19.1466 17.1038C19.4738 17.1791 19.8174 17.1273 20.108 16.959C20.3986 16.7907 20.6144 16.5184 20.7119 16.1971L21.3013 14.2598C21.4108 13.8944 21.6352 13.5741 21.9412 13.3463C22.2472 13.1186 22.6185 12.9956 22.9999 12.9956C23.3814 12.9956 23.7526 13.1186 24.0586 13.3463C24.3647 13.5741 24.5891 13.8944 24.6986 14.2598V14.2611Z" stroke="#846926" stroke-width="2" stroke-linecap="round" stroke-linejoin="round"/>
<path d="M7 14.0146H13" stroke="#846926" stroke-width="2" stroke-linecap="round" stroke-linejoin="round"/>
<path d="M7 19.0146H10" stroke="#846926" stroke-width="2" stroke-linecap="round" stroke-linejoin="round"/>
<path d="M7 24.0146H10" stroke="#846926" stroke-width="2" stroke-linecap="round" stroke-linejoin="round"/>
<path d="M13 31H3C2.46957 31 1.96086 30.7893 1.58579 30.4142C1.21071 30.0391 1 29.5304 1 29V8C1 7.46957 1.21071 6.96086 1.58579 6.58579C1.96086 6.21071 2.46957 6 3 6H8C8 4.67392 8.52678 3.40215 9.46447 2.46447C10.4021 1.52678 11.6739 1 13 1C14.3261 1 15.5979 1.52678 16.5355 2.46447C17.4732 3.40215 18 4.67392 18 6H23C23.5304 6 24.0391 6.21071 24.4142 6.58579C24.7893 6.96086 25 7.46957 25 8V9" stroke="#846926" stroke-width="2" stroke-linecap="round" stroke-linejoin="round"/>
<path d="M13 6.01465C12.8674 6.01465 12.7402 5.96197 12.6464 5.8682C12.5527 5.77443 12.5 5.64726 12.5 5.51465C12.5 5.38204 12.5527 5.25486 12.6464 5.1611C12.7402 5.06733 12.8674 5.01465 13 5.01465" stroke="#846926" stroke-width="1.5"/>
<path d="M13 6.01465C13.1326 6.01465 13.2598 5.96197 13.3536 5.8682C13.4473 5.77443 13.5 5.64726 13.5 5.51465C13.5 5.38204 13.4473 5.25486 13.3536 5.1611C13.2598 5.06733 13.1326 5.01465 13 5.01465" stroke="#846926" stroke-width="1.5"/>
</g>
<defs>
<clipPath id="clip0_4930_8434">
<rect width="32" height="32" fill="white"/>
</clipPath>
</defs>
</svg>
