<svg width="32" height="32" viewBox="0 0 32 32" fill="none" xmlns="http://www.w3.org/2000/svg">
<path d="M15.0625 22.5625C15.0625 24.5516 15.8527 26.4593 17.2592 27.8658C18.6657 29.2723 20.5734 30.0625 22.5625 30.0625C24.5516 30.0625 26.4593 29.2723 27.8658 27.8658C29.2723 26.4593 30.0625 24.5516 30.0625 22.5625C30.0625 20.5734 29.2723 18.6657 27.8658 17.2592C26.4593 15.8527 24.5516 15.0625 22.5625 15.0625C20.5734 15.0625 18.6657 15.8527 17.2592 17.2592C15.8527 18.6657 15.0625 20.5734 15.0625 22.5625Z" stroke="#846926" stroke-width="2" stroke-linecap="round" stroke-linejoin="round"/>
<path d="M25.9054 20.3825L22.2741 25.2238C22.1933 25.3311 22.0905 25.4198 21.9725 25.484C21.8546 25.5482 21.7242 25.5864 21.5903 25.596C21.4563 25.6056 21.3218 25.5864 21.1959 25.5396C21.07 25.4929 20.9556 25.4197 20.8604 25.325L18.9854 23.45" stroke="#846926" stroke-width="2" stroke-linecap="round" stroke-linejoin="round"/>
<path d="M4.75 16V3.8125C4.75 3.31522 4.94754 2.83831 5.29917 2.48667C5.65081 2.13504 6.12772 1.9375 6.625 1.9375H25.375C25.8723 1.9375 26.3492 2.13504 26.7008 2.48667C27.0525 2.83831 27.25 3.31522 27.25 3.8125V11.3125" stroke="#846926" stroke-width="2" stroke-linecap="round" stroke-linejoin="round"/>
<path d="M13.1875 16H1.9375C1.9375 17.2432 2.43136 18.4355 3.31044 19.3146C3.74571 19.7498 4.26246 20.0951 4.83117 20.3307C5.39989 20.5663 6.00943 20.6875 6.625 20.6875H11.3125" stroke="#846926" stroke-width="2" stroke-linecap="round" stroke-linejoin="round"/>
</svg>
