<svg width="32" height="32" viewBox="0 0 32 32" fill="none" xmlns="http://www.w3.org/2000/svg">
<path d="M9.4375 8.49998V3.16248C9.4375 2.83095 9.5692 2.51301 9.80362 2.27859C10.038 2.04417 10.356 1.91248 10.6875 1.91248H22.825L30.1 9.24998V28.8375C30.1 29.169 29.9683 29.4869 29.7339 29.7214C29.4995 29.9558 29.1815 30.0875 28.85 30.0875H20.6875" stroke="#846926" stroke-width="2" stroke-linecap="round" stroke-linejoin="round"/>
<path d="M22.5625 1.9375V8.1875C22.5625 8.51902 22.6942 8.83696 22.9286 9.07138C23.163 9.3058 23.481 9.4375 23.8125 9.4375H30.0625" stroke="#846926" stroke-width="2" stroke-linecap="round" stroke-linejoin="round"/>
<path d="M25.75 14.125H16.9375" stroke="#846926" stroke-width="2" stroke-linecap="round" stroke-linejoin="round"/>
<path d="M25.75 24.125H22.25" stroke="#846926" stroke-width="2" stroke-linecap="round" stroke-linejoin="round"/>
<path d="M25.75 19.125H18.8125" stroke="#846926" stroke-width="2" stroke-linecap="round" stroke-linejoin="round"/>
<path d="M1.9375 26.3125L2.875 30.0625H16L16.9375 26.3125" stroke="#846926" stroke-width="2" stroke-linecap="round" stroke-linejoin="round"/>
<path d="M13.1875 22.5625H11.3125V19.225C12.0274 18.8122 12.5861 18.1751 12.902 17.4124C13.218 16.6498 13.2734 15.8042 13.0597 15.0068C12.8461 14.2094 12.3753 13.5048 11.7204 13.0023C11.0654 12.4998 10.263 12.2274 9.4375 12.2274C8.612 12.2274 7.80956 12.4998 7.15464 13.0023C6.49973 13.5048 6.02893 14.2094 5.81528 15.0068C5.60162 15.8042 5.65705 16.6498 5.97295 17.4124C6.28886 18.1751 6.84759 18.8122 7.5625 19.225V22.5625H5.6875C4.69294 22.5625 3.73911 22.9576 3.03585 23.6608C2.33259 24.3641 1.9375 25.3179 1.9375 26.3125H16.9375C16.9375 25.3179 16.5424 24.3641 15.8392 23.6608C15.1359 22.9576 14.1821 22.5625 13.1875 22.5625Z" stroke="#846926" stroke-width="2" stroke-linecap="round" stroke-linejoin="round"/>
</svg>
