<svg width="32" height="32" viewBox="0 0 32 32" fill="none" xmlns="http://www.w3.org/2000/svg">
<g clip-path="url(#clip0_4766_8122)">
<path d="M28.1875 20.6875V24.4375" stroke="#846926" stroke-width="2" stroke-linecap="round" stroke-linejoin="round"/>
<path d="M3.8125 24.4375V11.3125C3.8125 10.8152 4.01004 10.3383 4.36167 9.98667C4.71331 9.63504 5.19022 9.4375 5.6875 9.4375H10.375" stroke="#846926" stroke-width="2" stroke-linecap="round" stroke-linejoin="round"/>
<path d="M19.23 24.4375C18.9046 25.007 18.4345 25.4803 17.8673 25.8095C17.3 26.1387 16.6559 26.3121 16 26.3121C15.3441 26.3121 14.7 26.1387 14.1327 25.8095C13.5655 25.4803 13.0954 25.007 12.77 24.4375H1.9375V26.3125C1.9375 27.3071 2.33259 28.2609 3.03585 28.9642C3.73911 29.6674 4.69294 30.0625 5.6875 30.0625H26.3125C27.3071 30.0625 28.2609 29.6674 28.9642 28.9642C29.6674 28.2609 30.0625 27.3071 30.0625 26.3125V24.4375H19.23Z" stroke="#846926" stroke-width="2" stroke-linecap="round" stroke-linejoin="round"/>
<path d="M24.4452 2.27C22.9744 1.83049 21.4079 1.82597 19.9346 2.25699C18.4613 2.68802 17.1442 3.53616 16.1422 4.6991C15.1402 5.86203 14.4962 7.29006 14.2878 8.8109C14.0794 10.3317 14.3155 11.8804 14.9677 13.27L12.3877 18.5075L18.2914 16.895C18.8114 17.1925 19.3652 17.43 19.9402 17.6025C21.9617 18.1615 24.1218 17.9032 25.9545 16.8834C27.7872 15.8637 29.1455 14.1642 29.7362 12.1518C30.3269 10.1393 30.1026 7.97536 29.1118 6.12685C28.121 4.27833 26.4431 2.89351 24.4402 2.27125L24.4452 2.27Z" stroke="#846926" stroke-width="2" stroke-linecap="round" stroke-linejoin="round"/>
<path d="M19.8799 8.07752C19.8799 7.61397 20.0173 7.16083 20.2749 6.7754C20.5324 6.38997 20.8985 6.08957 21.3267 5.91217C21.755 5.73478 22.2262 5.68837 22.6809 5.7788C23.1355 5.86923 23.5531 6.09245 23.8809 6.42023C24.2087 6.74801 24.4319 7.16563 24.5223 7.62027C24.6128 8.07492 24.5664 8.54617 24.389 8.97443C24.2116 9.40269 23.9112 9.76874 23.5258 10.0263C23.1403 10.2838 22.6872 10.4213 22.2236 10.4213" stroke="#846926" stroke-width="2" stroke-linecap="round" stroke-linejoin="round"/>
<path d="M22.2236 14.1713C22.0993 14.1713 21.9801 14.1219 21.8922 14.034C21.8043 13.9461 21.7549 13.8268 21.7549 13.7025C21.7549 13.5782 21.8043 13.459 21.8922 13.3711C21.9801 13.2832 22.0993 13.2338 22.2236 13.2338" stroke="#846926" stroke-width="2"/>
<path d="M22.2236 14.1713C22.348 14.1713 22.4672 14.1219 22.5551 14.034C22.643 13.9461 22.6924 13.8268 22.6924 13.7025C22.6924 13.5782 22.643 13.459 22.5551 13.3711C22.4672 13.2832 22.348 13.2338 22.2236 13.2338" stroke="#846926" stroke-width="2"/>
</g>
<defs>
<clipPath id="clip0_4766_8122">
<rect width="32" height="32" fill="white"/>
</clipPath>
</defs>
</svg>
